<svg width="400" height="365" viewBox="0 0 400 365" fill="none" xmlns="http://www.w3.org/2000/svg">
    <path fill-rule="evenodd" clip-rule="evenodd"
        d="M95.7557 273.427C94.245 286.382 91.7767 296.572 88.3507 303.995C82.5628 316.932 71.3275 323.401 54.6447 323.401C36.2595 323.401 18.0447 316.592 0 302.973V347.915C17.0233 359.15 36.4298 364.768 58.2196 364.768C72.7274 364.768 85.2394 362.492 95.7557 357.942V273.427Z"
        fill="#59f8e8" />
    <path fill-rule="evenodd" clip-rule="evenodd"
        d="M157.022 0H114.283L114.283 352.864C123.637 348.055 131.244 341.255 137.105 332.464C150.383 313.058 157.022 282.586 157.022 241.049V0Z"
        fill="#59f8e8" />
    <path fill-rule="evenodd" clip-rule="evenodd"
        d="M176.187 247.862L224.831 191.512L342.291 355.446H400L256.494 154.231L388.765 0H333.609L176.187 182.49V247.862Z"
        fill="#59f8e8" />
</svg>