<?xml version="1.0" standalone="no"?>
<!DOCTYPE svg PUBLIC "-//W3C//DTD SVG 20010904//EN"
 "http://www.w3.org/TR/2001/REC-SVG-20010904/DTD/svg10.dtd">
<svg version="1.0" xmlns="http://www.w3.org/2000/svg"
 width="800.000000pt" height="800.000000pt" viewBox="0 0 800.000000 800.000000"
 preserveAspectRatio="xMidYMid meet">
<metadata>
Created by potrace 1.14, written by Peter Selinger 2001-2017
</metadata>
<g transform="translate(0.000000,800.000000) scale(0.100000,-0.100000)"
fill="#000000" stroke="none">
<path d="M2289 7643 c-1 -5 -2 -1593 -3 -3530 l-1 -3522 35 21 c19 12 44 26
55 32 83 44 273 219 325 298 14 21 28 38 33 38 4 0 7 5 7 11 0 6 9 24 20 39
33 46 90 151 90 165 0 7 4 15 9 17 10 3 68 142 96 228 10 30 21 64 26 75 8 19
55 208 64 256 3 13 7 35 10 49 3 14 10 52 15 85 5 33 12 69 14 81 2 12 7 45
11 75 3 30 8 70 11 89 21 164 38 544 33 770 0 8 0 44 0 80 1 36 1 72 0 80 0 8
0 44 0 80 1 36 1 72 0 80 0 8 0 44 0 80 1 36 1 72 0 80 0 11 -1 1196 0 1440 0
8 0 44 1 80 1 128 2 146 1 185 -1 22 -1 58 0 80 0 22 0 58 0 80 -1 22 -1 58 0
80 0 22 0 58 0 80 -1 22 -1 58 0 80 0 22 0 58 0 80 -1 22 -1 58 0 80 0 22 0
58 0 80 -1 22 -1 58 0 80 1 34 0 105 -2 140 -1 11 -1 1411 0 1435 1 37 0 176
-1 190 0 8 1 20 2 25 8 35 8 35 -425 35 -234 0 -425 -3 -426 -7z"/>
<path d="M6644 7618 c-16 -18 -51 -60 -79 -93 -27 -32 -56 -67 -65 -76 -8 -9
-33 -37 -55 -63 -22 -25 -51 -58 -65 -74 -14 -15 -47 -54 -74 -87 -27 -33 -59
-70 -70 -81 -12 -12 -30 -32 -40 -45 -34 -42 -139 -164 -145 -169 -3 -3 -31
-34 -61 -70 -30 -36 -59 -70 -65 -76 -5 -6 -30 -35 -55 -64 -25 -29 -50 -58
-55 -64 -6 -6 -37 -42 -70 -81 -33 -38 -64 -75 -70 -81 -5 -6 -30 -35 -55 -64
-50 -59 -54 -63 -126 -146 -28 -32 -70 -81 -93 -108 -23 -27 -48 -54 -54 -61
-7 -7 -32 -36 -57 -66 -42 -50 -87 -102 -164 -190 -17 -20 -51 -60 -76 -89
-69 -81 -140 -164 -185 -215 -15 -16 -61 -70 -102 -120 -42 -49 -81 -94 -87
-100 -11 -10 -95 -108 -132 -154 -10 -13 -24 -28 -30 -35 -22 -24 -160 -182
-205 -236 -11 -14 -35 -41 -52 -60 -18 -19 -57 -64 -87 -100 -30 -36 -59 -70
-65 -76 -5 -6 -32 -37 -60 -69 -27 -32 -59 -69 -70 -82 -11 -12 -36 -41 -55
-64 -19 -22 -44 -51 -55 -63 -11 -13 -42 -49 -70 -81 -125 -147 -199 -230
-207 -233 -4 -2 -8 -8 -8 -13 0 -6 -12 -21 -27 -35 l-28 -26 -1 -646 c0 -356
1 -650 3 -654 2 -5 30 22 61 59 31 37 64 75 72 84 8 8 33 37 55 63 22 27 45
54 52 61 11 11 126 145 163 188 8 10 22 26 31 35 8 9 40 46 70 82 30 36 61 72
69 80 8 8 40 44 70 80 30 36 57 67 60 70 3 3 46 52 95 110 49 58 100 116 112
130 12 14 30 35 41 47 l19 23 64 -90 c112 -158 153 -214 171 -234 10 -11 18
-26 18 -33 0 -7 3 -13 8 -13 4 -1 27 -30 52 -66 25 -35 90 -127 145 -204 55
-76 118 -165 140 -196 22 -31 61 -85 87 -120 26 -35 66 -91 90 -125 59 -85
100 -143 121 -170 19 -26 108 -152 129 -182 7 -11 21 -29 30 -40 22 -27 30
-39 43 -59 24 -37 99 -143 105 -148 3 -3 21 -27 40 -55 19 -27 36 -52 39 -55
4 -3 26 -35 51 -71 25 -36 55 -79 68 -95 12 -16 144 -200 293 -409 150 -209
335 -468 412 -575 77 -107 161 -224 186 -260 25 -36 49 -68 55 -72 5 -3 265
-6 578 -6 473 0 568 2 568 13 0 8 -4 17 -10 20 -9 5 -182 244 -205 283 -5 9
-13 19 -16 22 -3 3 -50 68 -104 145 -55 77 -103 142 -107 143 -4 2 -8 8 -8 14
0 8 -45 75 -61 88 -3 3 -30 41 -59 85 -30 44 -57 82 -61 85 -3 3 -25 34 -50
69 -70 101 -74 106 -81 109 -5 2 -8 8 -8 14 0 5 -6 16 -12 23 -30 33 -38 45
-38 54 0 5 -3 11 -8 13 -10 4 -182 246 -182 256 0 4 -9 14 -20 22 -11 8 -20
18 -20 23 0 5 -10 22 -22 37 -13 15 -30 37 -38 50 -8 12 -41 58 -72 101 -32
44 -58 83 -58 88 0 5 -4 11 -8 13 -5 2 -54 68 -110 148 -56 80 -107 152 -114
160 -7 8 -24 30 -37 50 -46 66 -80 115 -141 198 -33 46 -60 87 -60 92 0 4 -3
10 -8 12 -7 3 -155 206 -260 358 -25 36 -48 67 -51 70 -3 3 -10 13 -16 22 -11
18 -278 394 -298 418 -7 9 -32 45 -57 80 -24 36 -52 73 -61 83 -9 9 -22 30
-30 45 -8 15 -17 29 -20 32 -14 12 -139 191 -139 199 0 5 -4 11 -9 13 -5 2
-50 61 -100 131 -83 117 -104 160 -83 169 4 2 34 35 67 73 33 39 62 72 65 75
3 3 30 34 60 70 30 35 66 78 80 94 14 16 33 38 43 48 9 10 17 20 17 23 0 2 10
15 23 28 31 33 84 94 137 157 25 29 58 67 73 84 16 17 41 46 55 65 15 19 36
44 47 56 11 11 40 45 65 74 25 30 50 59 55 65 6 6 33 38 60 71 28 32 57 66 65
75 8 9 35 40 60 70 25 29 50 58 55 64 15 16 134 155 182 211 22 28 62 73 87
100 25 28 48 58 52 68 3 9 9 17 13 17 5 0 35 32 67 71 33 39 68 81 79 93 22
25 103 120 150 175 17 20 35 41 40 47 6 6 30 35 55 64 59 69 67 78 122 141 25
30 56 65 67 79 12 14 29 34 39 45 10 11 58 67 107 125 50 58 95 110 100 116 6
6 28 32 50 59 22 26 45 53 50 59 9 10 121 140 149 173 6 7 27 31 46 52 19 22
49 56 67 78 17 21 40 49 52 62 12 13 21 26 21 28 0 1 -247 3 -548 3 l-549 0
-29 -32z"/>
<path d="M1899 2093 c-2 -43 -7 -92 -13 -109 -3 -10 -8 -34 -11 -51 -40 -237
-130 -446 -241 -559 -54 -55 -174 -131 -219 -138 -5 -1 -15 -5 -21 -8 -12 -8
-89 -26 -149 -35 -82 -13 -294 -7 -395 11 -14 2 -45 7 -70 11 -92 14 -386 123
-470 175 -8 5 -51 30 -95 56 -44 26 -83 52 -87 58 -4 6 -8 7 -8 3 0 -4 -12 4
-27 18 -15 14 -31 25 -36 25 -4 0 -18 9 -30 21 l-22 20 -3 -447 c-2 -445 0
-474 31 -474 6 0 18 -6 26 -14 44 -38 352 -181 424 -196 1 0 25 -8 52 -16 76
-24 127 -36 225 -54 153 -27 194 -30 400 -31 228 -1 314 8 534 56 54 12 207
68 213 78 10 16 10 1617 1 1617 -5 0 -8 -8 -9 -17z"/>
</g>
</svg>
