<?xml version="1.0" standalone="no"?>
<!DOCTYPE svg PUBLIC "-//W3C//DTD SVG 20010904//EN"
 "http://www.w3.org/TR/2001/REC-SVG-20010904/DTD/svg10.dtd">
<svg version="1.0" xmlns="http://www.w3.org/2000/svg"
 width="500.000000pt" height="500.000000pt" viewBox="0 0 500.000000 500.000000"
 preserveAspectRatio="xMidYMid meet">
<metadata>
Created by potrace 1.14, written by Peter Selinger 2001-2017
</metadata>
<g transform="translate(0.000000,500.000000) scale(0.100000,-0.100000)"
fill="#000000" stroke="none">
<path d="M0 2500 l0 -2500 2500 0 2500 0 0 2500 0 2500 -2500 0 -2500 0 0
-2500z m580 728 l0 -973 228 230 c125 127 559 564 964 973 l736 742 232 -2
231 -3 -796 -803 c-438 -441 -793 -807 -790 -813 4 -5 200 -226 437 -491 l429
-481 -118 -119 -118 -119 -25 28 c-657 736 -843 943 -848 943 -4 0 -132 -125
-284 -277 l-278 -278 0 -492 0 -493 -165 0 -165 0 0 1700 0 1700 165 0 165 0
0 -972z m4168 -395 l-3 -1368 -23 -73 c-96 -311 -376 -545 -697 -582 -119 -13
-1155 -13 -1264 0 -198 25 -321 88 -454 233 l-91 98 119 119 118 119 68 -73
c73 -78 142 -122 244 -153 55 -17 105 -18 630 -18 561 0 571 0 640 22 181 57
327 213 370 395 13 54 15 251 15 1356 l0 1292 165 0 165 0 -2 -1367z"/>
</g>
</svg>
